<svg width="33" height="32" viewBox="0 0 33 32" fill="none" xmlns="http://www.w3.org/2000/svg">
<clipPath d="M16.5 0C7.67144 0 0.5 7.17144 0.5 16C0.5 24.8286 7.67144 32 16.5 32C25.3286 32 32.5 24.8286 32.5 16C32.5 7.17144 25.3286 0 16.5 0ZM12.3 23.8572H8.44284V12.3428H12.2714V23.8572H12.3ZM10.3857 10.7714C9.07144 10.7714 8.24284 9.88572 8.24284 8.77144C8.24284 7.62856 9.1 6.77144 10.4143 6.77144C11.7286 6.77144 12.5286 7.62856 12.5572 8.77144C12.5286 9.88572 11.7 10.7714 10.3857 10.7714ZM26.1 23.8572H22.2714V17.6857C22.2714 16.1428 21.7286 15.0857 20.3286 15.0857C19.2714 15.0857 18.6428 15.8 18.3572 16.4857C18.2714 16.7428 18.2428 17.0857 18.2428 17.4286V23.8572H14.4143C14.4143 23.8572 14.4714 13.4286 14.4143 12.3428H18.2428V13.9714C18.7572 13.2 19.6714 12.0572 21.7 12.0572C24.2143 12.0572 26.1 13.7143 26.1 17.2286V23.8572ZM18.2428 14V13.9714C18.2428 14 18.2143 14 18.2428 14Z" fill="transparent"/>
</svg>
