<svg width="163" height="68" viewBox="0 0 163 68" fill="none" xmlns="http://www.w3.org/2000/svg">
<path d="M0.486816 2.9624V3.95361C2.93066 4.10742 3.25537 4.19287 3.25537 7.04688V19.8984C3.25537 22.5474 2.96484 22.7866 0.298828 22.9917V24H9.03174V22.9917C6.00684 22.7866 5.69922 22.667 5.69922 19.8984V14.8569L8.14307 15.5234C8.51904 15.5576 9.15137 15.5576 9.66406 15.4893C12.7744 15.1133 15.9189 13.0283 15.9189 8.82422C15.9189 6.70508 15.0645 5.25244 13.8853 4.32959C12.5522 3.33838 10.6724 2.9624 8.45068 2.9624H0.486816ZM5.69922 6.00439C5.69922 5.08154 5.78467 4.70557 6.0752 4.44922C6.26318 4.22705 7.03223 4.03906 7.97217 4.03906C10.8091 4.03906 13.0308 5.59424 13.0308 9.0293C13.0308 12.9941 10.4844 14.1562 8.19434 14.1562C7.06641 14.1562 6.14355 13.8828 5.69922 13.7119V6.00439Z" fill="white"/>
<path d="M30.6333 22.7866L30.2744 21.8809C29.9668 22.0347 29.4883 22.2568 29.1123 22.2568C28.4971 22.2568 27.9673 21.7441 27.9673 20.2915V14.1562C27.9673 12.5156 27.6084 11.2168 26.5317 10.2939C25.8652 9.6958 24.8569 9.40527 23.9341 9.40527C22.0371 9.78125 19.9692 11.0459 19.166 11.6611C18.5679 12.1055 18.0894 12.4814 18.0894 12.96C18.0894 13.7119 18.9268 14.3271 19.4224 14.3271C19.9009 14.3271 20.2598 14.105 20.3452 13.6265C20.6699 12.6353 20.9263 12.0029 21.3364 11.5244C21.644 11.1484 22.1909 10.8579 22.8916 10.8579C24.5322 10.8579 25.7456 12.1909 25.7456 14.5835V15.0449C25.0449 15.5576 22.6694 16.4805 20.7041 17.147C18.8584 17.7109 18.0039 18.856 18.0039 20.377C18.0039 22.5132 19.6104 24.376 21.8149 24.376C22.9429 24.376 24.4468 23.2139 25.7969 22.3252C25.9336 22.855 26.1216 23.3335 26.6001 23.812C26.8906 24.1025 27.5742 24.376 28.0015 24.376L30.6333 22.7866ZM25.7456 21.1802C25.1133 21.7441 23.7803 22.479 22.8916 22.479C21.8149 22.479 20.4819 21.6587 20.4819 20.0352C20.4819 18.8218 21.1997 18.1895 22.5327 17.6255C23.2676 17.3008 25.0107 16.5488 25.7456 16.1899V21.1802Z" fill="white"/>
<path d="M36.3242 12.8232V9.30273C34.8716 9.96924 33.4702 10.3794 31.9834 10.6357V11.4731C33.9146 11.6953 34.0513 11.7808 34.0513 13.9683V20.5649C34.0513 22.7012 33.8291 22.9233 31.6929 23.0771V24H39.0244V23.0771C36.4609 22.9233 36.3242 22.7012 36.3242 20.5479V14.8057C37.0249 12.8574 38.2041 11.7466 39.127 11.7466C39.6226 11.7466 40.0156 11.9175 40.46 12.4131C40.6821 12.584 40.9214 12.6011 41.3145 12.4814C41.9468 12.1567 42.2544 11.5586 42.2544 10.9946C42.2544 10.2256 41.5366 9.40527 40.3916 9.40527C38.7339 9.40527 37.3667 11.2168 36.3926 12.8232H36.3242Z" fill="white"/>
<path d="M52.5425 22.8208L52.2178 21.9663C51.8076 22.1885 50.9873 22.5474 50.1328 22.5474C49.2954 22.5474 48.2188 22.0347 48.2188 19.437V11.1143H51.8076C52.2178 10.8237 52.3203 10.106 51.9956 9.78125H48.2188V5.44043L47.7402 5.37207L45.9629 7.49121V9.78125H44.4077L43.519 10.7383L43.6558 11.1143H45.9629V20.5649C45.9629 23.0771 47.0566 24.376 49.022 24.376C49.3638 24.376 49.9106 24.2563 50.5088 23.9316L52.5425 22.8208Z" fill="white"/>
<path d="M70.0083 24V23.0771C68.043 22.855 67.855 22.7695 67.855 20.5479V14.293C67.855 11.1826 66.2314 9.40527 63.7021 9.40527C62.7109 9.40527 61.7881 9.84961 60.8994 10.3794C60.0791 10.9604 59.3784 11.4048 58.7461 11.8833V9.30273C57.4814 9.96924 56.0288 10.3623 54.4736 10.6357V11.4731C56.251 11.7466 56.4731 11.8833 56.4731 13.9683V20.5649C56.4731 22.667 56.2681 22.855 54.0806 23.0771V24H60.9678V23.0771C58.8999 22.855 58.7461 22.7866 58.7461 20.5479V13.0796C59.7715 12.1396 61.1216 11.2681 62.5229 11.2681C64.8472 11.2681 65.5991 12.8062 65.5991 15.0791V20.4111C65.5991 22.5986 65.3428 22.855 63.3433 23.0771V24H70.0083Z" fill="white"/>
<path d="M83.0991 20.5991C81.8857 21.6758 80.7065 22.2568 79.3564 22.2568C77.1348 22.2568 74.52 20.4111 74.5029 16.002C78.4678 15.8823 82.6206 15.5576 83.1333 15.4893C83.6973 15.3354 83.8169 15.1133 83.8169 14.3784C83.8169 11.7808 81.6636 9.40527 78.9634 9.40527H78.9292C77.3228 9.40527 75.5796 10.2939 74.2808 11.7466C72.9478 13.2163 72.1787 15.25 72.1787 17.4717C72.1787 21.146 74.52 24.376 78.3994 24.376C79.4077 24.376 81.5781 23.8462 83.6631 21.4023L83.0991 20.5991ZM78.2456 10.6699C80.04 10.6699 81.2192 12.1396 81.2192 13.8486C81.2192 14.3271 81.0312 14.5151 80.3989 14.5493C78.3994 14.6006 76.5195 14.6348 74.6226 14.6006C75.2207 12.0371 76.6904 10.6699 78.2114 10.6699H78.2456Z" fill="white"/>
<path d="M90.499 12.8232V9.30273C89.0464 9.96924 87.645 10.3794 86.1582 10.6357V11.4731C88.0894 11.6953 88.2261 11.7808 88.2261 13.9683V20.5649C88.2261 22.7012 88.0039 22.9233 85.8677 23.0771V24H93.1992V23.0771C90.6357 22.9233 90.499 22.7012 90.499 20.5479V14.8057C91.1997 12.8574 92.3789 11.7466 93.3018 11.7466C93.7974 11.7466 94.1904 11.9175 94.6348 12.4131C94.8569 12.584 95.0962 12.6011 95.4893 12.4814C96.1216 12.1567 96.4292 11.5586 96.4292 10.9946C96.4292 10.2256 95.7114 9.40527 94.5664 9.40527C92.9087 9.40527 91.5415 11.2168 90.5674 12.8232H90.499Z" fill="white"/>
<path d="M106.991 13.4385C106.854 12.5498 106.546 10.7041 106.222 9.96924C105.555 9.6958 104.701 9.40527 103.368 9.40527C100.428 9.40527 98.5142 11.3022 98.5142 13.5239C98.5142 16.002 100.479 16.9932 102.633 17.9673C104.137 18.7021 105.213 19.4541 105.213 20.8896C105.213 22.3252 104 23.2651 102.804 23.2651C100.838 23.2651 99.4712 21.4878 98.9243 19.3003L97.916 19.4541C97.916 20.5991 98.2236 22.7866 98.48 23.2651C98.9927 23.7437 100.514 24.376 102.206 24.376C104.769 24.376 107.521 22.855 107.521 19.9326C107.521 17.7109 105.812 16.5488 103.402 15.5576C102 15.0278 100.65 14.293 100.65 12.772C100.65 11.439 101.505 10.4478 102.804 10.4478C104.359 10.4478 105.436 11.6953 106.034 13.6948L106.991 13.4385Z" fill="white"/>
<path d="M125.277 24V23.0771C123.312 22.9233 123.089 22.7354 123.089 20.5991V14.9595C123.089 11.0801 121.175 9.37109 118.543 9.40527C116.766 9.40527 115.023 10.6357 113.844 11.7466V0.962891C112.716 1.33887 110.802 1.88574 109.281 2.14209V2.9624C111.468 3.11621 111.605 3.3042 111.605 5.33789V20.5649C111.605 22.7012 111.28 22.9233 109.281 23.0771V24H116.1V23.0771C114.049 22.9233 113.844 22.667 113.844 20.5649V13.0283C114.767 11.9175 116.1 11.2168 117.467 11.2168C119.791 11.2168 120.799 12.6011 120.799 15.3013V20.5649C120.799 22.7012 120.475 22.9233 118.543 23.0771V24H125.277Z" fill="white"/>
<path d="M130.421 6.51709C131.31 6.51709 131.976 5.74805 131.976 4.92773C131.976 3.9707 131.31 3.28711 130.455 3.28711C129.566 3.28711 128.832 3.9707 128.832 4.92773C128.832 5.74805 129.566 6.51709 130.421 6.51709ZM134.112 24V23.0771C131.976 22.9233 131.754 22.7012 131.754 20.5479V9.30273C130.421 9.93506 129.002 10.3281 127.345 10.6357V11.4731C129.413 11.7466 129.481 11.8833 129.481 13.8486V20.5479C129.481 22.7012 129.225 22.9233 127.123 23.0771V24H134.112Z" fill="white"/>
<path d="M139.649 11.6953V9.08057C138.231 9.66162 136.454 10.2256 135.121 10.4478V11.3364C137.274 11.5586 137.359 11.627 137.359 13.7803V28.1528C137.359 30.3403 137.086 30.5112 134.95 30.7334V31.6733H142.435V30.7334C139.872 30.5112 139.649 30.3403 139.649 27.8794V23.7437C140.094 24 140.948 24.3247 141.939 24.376C146.195 23.6582 150.125 20.5479 150.125 15.5576C150.125 12.2935 147.904 9.40527 144.383 9.40527C143.939 9.40527 143.307 9.5249 142.794 9.88379L139.649 11.6953ZM139.649 12.8574C140.641 12.1396 142.093 11.3022 143.17 11.3022C145.614 11.3022 147.613 13.2676 147.613 16.7368C147.613 20.3257 145.75 22.7354 142.76 22.7354C141.546 22.7354 140.384 22.2227 139.649 21.4878V12.8574Z" fill="white"/>
<path d="M161.849 13.4385C161.712 12.5498 161.405 10.7041 161.08 9.96924C160.414 9.6958 159.559 9.40527 158.226 9.40527C155.287 9.40527 153.373 11.3022 153.373 13.5239C153.373 16.002 155.338 16.9932 157.491 17.9673C158.995 18.7021 160.072 19.4541 160.072 20.8896C160.072 22.3252 158.858 23.2651 157.662 23.2651C155.697 23.2651 154.33 21.4878 153.783 19.3003L152.774 19.4541C152.774 20.5991 153.082 22.7866 153.338 23.2651C153.851 23.7437 155.372 24.376 157.064 24.376C159.627 24.376 162.379 22.855 162.379 19.9326C162.379 17.7109 160.67 16.5488 158.26 15.5576C156.859 15.0278 155.509 14.293 155.509 12.772C155.509 11.439 156.363 10.4478 157.662 10.4478C159.217 10.4478 160.294 11.6953 160.892 13.6948L161.849 13.4385Z" fill="white"/>
<path d="M14.9277 42.7817C14.8081 41.2266 14.6372 39.2612 14.6201 37.9624H0.435547V38.9536C2.96484 39.1758 3.25537 39.2954 3.25537 42.0298V54.8984C3.25537 57.6328 2.96484 57.8208 0.333008 57.9917V59H9.06592V57.9917C6.00684 57.7866 5.69922 57.6328 5.69922 54.8984V49.0708H9.15137C12.0396 49.0708 12.1763 49.3784 12.6206 51.6685H13.6289V45.3794H12.6206C12.1763 47.5156 12.0396 47.772 9.15137 47.772H5.69922V40.1157C5.69922 39.2271 5.78467 39.1416 6.7417 39.1416H9.51025C11.8857 39.1416 12.5522 39.3638 13.0308 40.2524C13.4751 40.9531 13.5947 41.5171 13.9194 42.8843L14.9277 42.7817Z" fill="white"/>
<path d="M23.8828 44.4053C21.0288 44.4053 16.876 46.7808 16.876 52.2153C16.876 55.8213 19.542 59.376 23.917 59.376C27.0273 59.376 30.9067 56.9663 30.9067 51.6343C30.9067 47.584 27.8306 44.4053 23.917 44.4053H23.8828ZM23.5752 45.5503C26.5317 45.5503 28.1382 48.6948 28.1382 52.3008C28.1382 56.6245 26.4292 58.231 24.3101 58.231C21.4731 58.231 19.6445 55.2573 19.6445 51.1899C19.6445 47.5156 21.5073 45.5503 23.5752 45.5503Z" fill="white"/>
<path d="M37.4863 47.8232V44.3027C36.0337 44.9692 34.6323 45.3794 33.1455 45.6357V46.4731C35.0767 46.6953 35.2134 46.7808 35.2134 48.9683V55.5649C35.2134 57.7012 34.9912 57.9233 32.855 58.0771V59H40.1865V58.0771C37.623 57.9233 37.4863 57.7012 37.4863 55.5479V49.8057C38.187 47.8574 39.3662 46.7466 40.2891 46.7466C40.7847 46.7466 41.1777 46.9175 41.6221 47.4131C41.8442 47.584 42.0835 47.6011 42.4766 47.4814C43.1089 47.1567 43.4165 46.5586 43.4165 45.9946C43.4165 45.2256 42.6987 44.4053 41.5537 44.4053C39.896 44.4053 38.5288 46.2168 37.5547 47.8232H37.4863Z" fill="white"/>
<path d="M70.5552 53.2578C68.8804 56.6245 67.2568 58.2651 63.9927 58.2651C59.105 58.2651 55.4307 54.1807 55.4307 48.1138C55.4307 43.2261 58.3359 38.6973 63.8047 38.6973C67.479 38.6973 69.2222 40.2183 70.0254 43.5166L71.0679 43.2261C70.8799 41.5171 70.6577 40.2183 70.4355 38.3384C69.5127 38.1504 67.3594 37.4497 64.7446 37.4497C57.6353 37.4497 52.3716 41.9614 52.3716 48.8145C52.3716 53.8901 55.8921 59.5127 63.7363 59.5127C66.1802 59.5127 68.812 58.8462 69.769 58.624C70.2988 57.5986 71.1533 55.189 71.5806 53.5996L70.5552 53.2578Z" fill="white"/>
<path d="M89.0122 59V58.0771C87.0469 57.9233 86.8247 57.7354 86.8247 55.5991V49.9595C86.8247 46.0801 84.9106 44.3711 82.2788 44.4053C80.5015 44.4053 78.7583 45.6357 77.5791 46.7466V35.9629C76.4512 36.3389 74.5371 36.8857 73.0161 37.1421V37.9624C75.2036 38.1162 75.3403 38.3042 75.3403 40.3379V55.5649C75.3403 57.7012 75.0156 57.9233 73.0161 58.0771V59H79.835V58.0771C77.7842 57.9233 77.5791 57.667 77.5791 55.5649V48.0283C78.502 46.9175 79.835 46.2168 81.2021 46.2168C83.5264 46.2168 84.5347 47.6011 84.5347 50.3013V55.5649C84.5347 57.7012 84.21 57.9233 82.2788 58.0771V59H89.0122Z" fill="white"/>
<path d="M103.812 57.7866L103.453 56.8809C103.146 57.0347 102.667 57.2568 102.291 57.2568C101.676 57.2568 101.146 56.7441 101.146 55.2915V49.1562C101.146 47.5156 100.787 46.2168 99.7104 45.2939C99.0439 44.6958 98.0356 44.4053 97.1128 44.4053C95.2158 44.7812 93.1479 46.0459 92.3447 46.6611C91.7466 47.1055 91.2681 47.4814 91.2681 47.96C91.2681 48.7119 92.1055 49.3271 92.6011 49.3271C93.0796 49.3271 93.4385 49.105 93.5239 48.6265C93.8486 47.6353 94.105 47.0029 94.5151 46.5244C94.8228 46.1484 95.3696 45.8579 96.0703 45.8579C97.7109 45.8579 98.9243 47.1909 98.9243 49.5835V50.0449C98.2236 50.5576 95.8481 51.4805 93.8828 52.147C92.0371 52.7109 91.1826 53.856 91.1826 55.377C91.1826 57.5132 92.7891 59.376 94.9937 59.376C96.1216 59.376 97.6255 58.2139 98.9756 57.3252C99.1123 57.855 99.3003 58.3335 99.7788 58.812C100.069 59.1025 100.753 59.376 101.18 59.376L103.812 57.7866ZM98.9243 56.1802C98.292 56.7441 96.959 57.479 96.0703 57.479C94.9937 57.479 93.6606 56.6587 93.6606 55.0352C93.6606 53.8218 94.3784 53.1895 95.7114 52.6255C96.4463 52.3008 98.1895 51.5488 98.9243 51.1899V56.1802Z" fill="white"/>
<path d="M120.765 59V58.0771C118.8 57.855 118.612 57.7695 118.612 55.5479V49.293C118.612 46.1826 116.988 44.4053 114.459 44.4053C113.468 44.4053 112.545 44.8496 111.656 45.3794C110.836 45.9604 110.135 46.4048 109.503 46.8833V44.3027C108.238 44.9692 106.786 45.3623 105.23 45.6357V46.4731C107.008 46.7466 107.23 46.8833 107.23 48.9683V55.5649C107.23 57.667 107.025 57.855 104.837 58.0771V59H111.725V58.0771C109.657 57.855 109.503 57.7866 109.503 55.5479V48.0796C110.528 47.1396 111.878 46.2681 113.28 46.2681C115.604 46.2681 116.356 47.8062 116.356 50.0791V55.4111C116.356 57.5986 116.1 57.855 114.1 58.0771V59H120.765Z" fill="white"/>
<path d="M136.368 44.7129C135.069 44.9351 133.548 45.106 131.993 45.1914C131.07 44.6958 129.959 44.4053 128.951 44.4053H128.917C126.473 44.4053 123.141 46.1143 123.141 49.8057C123.141 52.0444 124.576 53.5142 125.875 54.0781C125.362 54.7446 124.354 55.6333 123.141 56.0776C123.106 56.3682 123.209 56.9321 123.465 57.3765C123.875 58.043 124.73 58.812 125.841 59.1196C125.106 59.7007 123.807 60.7773 123.209 61.4097C122.696 61.9224 122.44 62.623 122.44 63.2896C122.474 65.1865 124.508 67.2886 128.062 67.2886C132.318 67.2886 136.061 64.2124 136.061 60.9653C136.061 57.7866 133.48 57.103 131.429 57.103C130.318 57.103 129.139 57.1201 127.84 57.1201C126.405 57.1201 125.875 56.5562 125.875 55.9238C125.875 55.4795 126.439 54.8472 126.917 54.4883C127.481 54.5908 128.097 54.6592 128.575 54.6592C131.395 54.6592 134.249 52.9331 134.249 49.4468C134.249 48.3018 133.907 47.2251 133.292 46.5244L135.104 46.6611C135.616 46.4048 136.317 45.5503 136.59 45.0034L136.368 44.7129ZM128.575 45.4136C130.404 45.4136 131.771 47.1396 131.771 49.7373C131.771 52.2153 130.404 53.5483 128.917 53.5654C127.105 53.5654 125.721 51.8223 125.721 49.3271C125.721 46.8491 127.071 45.4136 128.541 45.4136H128.575ZM129.43 59.188C130.814 59.188 131.771 59.2905 132.591 59.6665C133.48 60.0425 133.993 60.897 133.993 61.9565C133.993 63.9902 132.352 65.5625 129.173 65.5625C126.798 65.5625 124.884 64.3662 124.884 62.5889C124.884 61.6318 125.516 60.6748 126.473 59.957C127.105 59.4102 127.84 59.188 129.396 59.188H129.43Z" fill="white"/>
<path d="M148.69 55.5991C147.477 56.6758 146.297 57.2568 144.947 57.2568C142.726 57.2568 140.111 55.4111 140.094 51.002C144.059 50.8823 148.211 50.5576 148.724 50.4893C149.288 50.3354 149.408 50.1133 149.408 49.3784C149.408 46.7808 147.254 44.4053 144.554 44.4053H144.52C142.914 44.4053 141.17 45.2939 139.872 46.7466C138.539 48.2163 137.77 50.25 137.77 52.4717C137.77 56.146 140.111 59.376 143.99 59.376C144.999 59.376 147.169 58.8462 149.254 56.4023L148.69 55.5991ZM143.836 45.6699C145.631 45.6699 146.81 47.1396 146.81 48.8486C146.81 49.3271 146.622 49.5151 145.99 49.5493C143.99 49.6006 142.11 49.6348 140.213 49.6006C140.812 47.0371 142.281 45.6699 143.802 45.6699H143.836Z" fill="white"/>
<path d="M154.475 45.1936L153.663 43.8794H152.682V45.1936H152.258V42.0323H153.736C154.089 42.0323 154.361 42.1119 154.553 42.2712C154.744 42.4305 154.84 42.6526 154.84 42.9375C154.84 43.1703 154.772 43.3678 154.635 43.5302C154.501 43.6895 154.314 43.7906 154.074 43.8335L154.968 45.1936H154.475ZM154.416 42.942C154.416 42.7583 154.353 42.6189 154.229 42.5239C154.104 42.4259 153.925 42.3769 153.69 42.3769H152.682V43.544H153.709C153.934 43.544 154.107 43.4919 154.229 43.3878C154.353 43.2805 154.416 43.132 154.416 42.942Z" fill="white"/>
<path fill-rule="evenodd" clip-rule="evenodd" d="M153.5 46.5484C155.184 46.5484 156.548 45.1836 156.548 43.5C156.548 41.8164 155.184 40.4516 153.5 40.4516C151.816 40.4516 150.452 41.8164 150.452 43.5C150.452 45.1836 151.816 46.5484 153.5 46.5484ZM153.5 47C155.433 47 157 45.433 157 43.5C157 41.567 155.433 40 153.5 40C151.567 40 150 41.567 150 43.5C150 45.433 151.567 47 153.5 47Z" fill="white"/>
</svg>
