<svg width="21" height="20" viewBox="0 0 21 20" fill="none" xmlns="http://www.w3.org/2000/svg">
<path d="M10.5 0C4.98215 0 0.5 4.48215 0.5 10C0.5 15.5178 4.98215 20 10.5 20C16.0178 20 20.5 15.5178 20.5 10C20.5 4.48215 16.0178 0 10.5 0ZM7.875 14.9107H5.46427V7.71427H7.85715V14.9107H7.875ZM6.67858 6.73215C5.85715 6.73215 5.33927 6.17858 5.33927 5.48215C5.33927 4.76785 5.875 4.23215 6.69642 4.23215C7.51785 4.23215 8.01785 4.76785 8.03573 5.48215C8.01785 6.17858 7.5 6.73215 6.67858 6.73215ZM16.5 14.9107H14.1072V11.0536C14.1072 10.0893 13.7678 9.42857 12.8928 9.42857C12.2321 9.42857 11.8393 9.875 11.6607 10.3036C11.6071 10.4643 11.5893 10.6786 11.5893 10.8928V14.9107H9.19643C9.19643 14.9107 9.23215 8.39285 9.19643 7.71427H11.5893V8.73215C11.9107 8.25 12.4821 7.53573 13.75 7.53573C15.3214 7.53573 16.5 8.57142 16.5 10.7678V14.9107ZM11.5893 8.75V8.73215C11.5893 8.75 11.5714 8.75 11.5893 8.75Z" fill="white"/>
</svg>
