<?xml version="1.0" encoding="utf-8"?><svg xmlns="http://www.w3.org/2000/svg" xmlns:xlink="http://www.w3.org/1999/xlink"><symbol fill="none" viewBox="0 0 33 32" id="linkedin" xmlns="http://www.w3.org/2000/svg"><path d="M16.5 0C7.671 0 .5 7.171.5 16s7.171 16 16 16 16-7.171 16-16-7.171-16-16-16zm-4.2 23.857H8.443V12.343h3.828v11.514h.029zm-1.914-13.086c-1.315 0-2.143-.885-2.143-2 0-1.142.857-2 2.171-2 1.315 0 2.115.858 2.143 2-.028 1.115-.857 2-2.171 2zM26.1 23.857h-3.829v-6.171c0-1.543-.542-2.6-1.942-2.6-1.058 0-1.686.714-1.972 1.4-.086.257-.114.6-.114.943v6.428h-3.829s.057-10.428 0-11.514h3.829v1.628c.514-.771 1.428-1.914 3.457-1.914 2.514 0 4.4 1.657 4.4 5.172v6.628zM18.243 14v-.029c0 .029-.029.029 0 .029z" fill="url(#apaint0_linear_602_2)"/><defs><linearGradient id="apaint0_linear_602_2" x1="33.127" y1="0" x2="2.039" y2="30.645" gradientUnits="userSpaceOnUse"><stop offset=".082" stop-color="#FCB560"/><stop offset=".737" stop-color="#F47C5A"/></linearGradient></defs></symbol></svg>