<?xml version="1.0" encoding="utf-8"?><svg xmlns="http://www.w3.org/2000/svg" xmlns:xlink="http://www.w3.org/1999/xlink"><symbol viewBox="0 0 21 20" id="linkedin" xmlns="http://www.w3.org/2000/svg"><path d="M10.5 0C4.982 0 .5 4.482.5 10s4.482 10 10 10 10-4.482 10-10-4.482-10-10-10zM7.875 14.91h-2.41V7.715h2.392v7.197h.018zM6.679 6.733c-.822 0-1.34-.553-1.34-1.25 0-.714.536-1.25 1.357-1.25.822 0 1.322.536 1.34 1.25-.018.697-.536 1.25-1.357 1.25zm9.821 8.179h-2.393v-3.857c0-.965-.34-1.625-1.214-1.625-.66 0-1.054.446-1.232.875-.054.16-.072.375-.072.589v4.018H9.196s.036-6.518 0-7.197h2.393v1.018c.322-.482.893-1.196 2.161-1.196 1.571 0 2.75 1.035 2.75 3.232v4.143zM11.59 8.75v-.018c0 .018-.019.018 0 .018z"/></symbol></svg>